<svg xmlns="http://www.w3.org/2000/svg" width="1000" height="1000" viewBox="-10.37 -85.85 194.74 194.74"><path d="M434.45 605.926v-1.289c-.313 0-.586-.078-.762-.156-1.074-.293-1.348-.723-2.774-4.297-1.386-3.418-3.144-8.652-3.789-10.664-.41-1.308-.859-3.672-1.015-5.254l-.918-.547c-.938.43-1.524.801-2.227 1.25-.644.47-.761.977-1.094 1.875-.683 1.758-3.28 10-5.527 14.922-.86 1.895-1.504 2.715-3.066 3.125l.156 1.29c1.191-.137 2.754-.255 3.516-.255.976 0 1.68.157 2.5.157.39 0 .605-.04 1.093-.157l.04-1.25c-.391-.039-.762-.058-1.075-.117-1.21-.195-1.465-.527-1.465-1.23 0-.723.606-2.598 1.309-4.649.156-.449.312-.664 1.27-.664 1.425 0 3.105-.156 4.12-.156q.587 0 .82.117s.157.274.235.43c.586 1.875 1.406 4.336 1.406 5.137 0 .742-.605.976-1.64 1.132a2.4 2.4 0 0 1-.606.098l.117 1.309c1.094-.117 3.38-.157 4.493-.157 1.894 0 3.105.176 3.945.176.352 0 .566-.058.937-.176zm-9.493-9.492c-.078.059-.214.078-.41.078-.781.04-2.597 0-3.926 0-.195 0-.312.04-.41-.058-.058-.098-.02-.235.059-.489.351-.976 1.445-3.906 2.207-6.113.059-.215.215-.45.332-.45.215 0 .195.313.312.509.606 2.207 1.211 4.004 1.797 5.898.059.254.098.488.04.625m26.052 9.278v-1.036l-1.308-.195c-.156-1.308.02-4.726.02-6.68 0-2.07-.39-3.3-1.367-4.218-.723-.664-1.739-1.133-2.774-1.133-1.406 0-2.324.488-3.984 1.68-.235.195-.39.312-.606.312-.156 0-.176-.176-.176-.547 0-.918-.488-1.504-1.347-1.504-1.29 0-3.028 1.25-3.887 1.875v.664c.254.313.703.723 1.055 1.075.293.449.488.78.508 1.347.058.82.097 2.227.097 3.574 0 .88-.039 3.106-.117 3.653l-1.543.332c0 .43.059.86.273 1.191.918-.117 1.622-.176 2.247-.176.605 0 2.168.157 2.714.157.606 0 .997-.059 1.622-.313l-.04-1.094c-.273-.039-.664 0-.878-.117-.547-.137-.586-.137-.586-4.414 0-1.738-.04-3.652.254-4.18.273-.507 1.523-.918 2.168-.918.937 0 1.68.489 2.03 1.114.313.761.49 1.328.49 3.496 0 1.406-.02 2.851-.118 3.672-.098.82-.293 1.152-.664 1.289-.332.078-.547.176-.86.234-.097.586-.038.86.215 1.25.86-.117 1.836-.176 2.5-.176.743 0 1.934.157 2.54.157.605 0 1.093-.118 1.523-.371m11.714-3.809c0-1.406-.86-2.52-2.012-3.34-.742-.527-1.602-1.035-2.734-1.582-.938-.488-1.641-1.074-1.641-1.836 0-.918.937-1.562 2.07-1.562 1.465 0 2.266.644 2.52 2.226.02.156 1.152.215 1.328.059 0-.352.097-.664.097-1.27 0-.742-.312-1.25-1.093-1.66-.899-.45-1.934-.664-3.184-.664-2.93 0-4.883 1.504-4.883 3.906 0 1.309.723 2.285 1.7 3.028.761.586 1.503 1.074 2.363 1.465 1.25.742 2.187 1.347 2.187 2.285 0 1.132-1.093 1.836-2.285 1.836-1.504 0-2.617-.918-2.754-2.54-.703-.175-.937-.019-1.25-.019-.058.488-.058.781-.058 1.211 0 1.035.117 1.406.703 1.816.879.567 2.011.996 3.554.996 3.164 0 5.372-1.777 5.372-4.355m23.91-8.066c.078-.372.078-.86-.117-1.23-.997 0-2.227.116-2.872.116-.488 0-1.074.04-1.464-.058-.293 0-.489.097-.645.097-.156.157-.078.938 0 1.133.274.117.645.078.918.117.684.118 1.035.371 1.035.762 0 .371-.176.762-.449 1.621-.39 1.192-1.133 3.633-1.855 5.352-.079.176-.137.449-.313.449-.117 0-.215-.234-.273-.488-.704-1.778-1.72-4.766-2.051-5.625-.215-.567-.332-1.055-.332-1.426 0-.586.644-.684 1.426-.82.097-.547 0-.918-.118-1.172-1.191.039-1.777.097-3.535.097-1.66 0-2.52 0-3.027.059-.098.39-.059.762-.059 1.074.02.078.176.117.293.117.41.176.528.215.918.762 0 0 .762 1.582.762 2.11 0 .253-.078.468-.078.703-.547 1.718-.899 2.656-1.621 4.433-.059.117-.156.371-.254.371-.156 0-.176-.156-.234-.37-.254-.528-1.934-4.395-2.579-6.114-.214-.547-.332-.8-.332-1.25 0-.527.489-.762 1.309-.82.078-.43.098-.645-.02-1.172-.82-.059-2.05.097-3.418.058-.683 0-1.601 0-2.324-.02-.976-.038-1.093.216-1.093.665 0 .273 0 .527.019.703.703.195 1.133.547 1.504 1.348 1.094 2.441 3.262 7.46 4.844 10.84.273.097.566.156.918.156.918 0 1.406-.43 1.777-1.348.86-2.226 1.25-3.164 2.168-5.644.039-.118.156-.371.254-.371.117 0 .117.156.176.273.722 1.894 1.797 4.746 2.714 7.05 1.036 0 1.407.04 1.836-.273.215-.136.528-.508.664-.879 1.29-3.183 2.813-6.992 3.985-9.863.351-.879.86-1.289 1.543-1.523m13.465 4.355c-.059-3.535-2.383-5.918-5.88-5.918-3.866 0-6.464 3.145-6.464 7.05 0 3.907 2.5 6.934 6.191 6.934 2.54 0 4.766-1.523 5.801-4.082l-.879-.566c-.879 1.191-1.64 1.563-2.969 1.563-2.675 0-4.57-1.856-4.57-4.278 0-.215.02-.39.02-.605zm-3.496-2.773c0 .976-.508 1.504-2.11 1.62-.976.06-1.582.118-2.383.118-.39 0-.507-.117-.507-.313 0-.41.488-1.328 1.152-2.07.527-.586 1.406-1.094 2.148-1.094.938 0 1.7.723 1.7 1.739m15.65-.879c0-.977-.058-1.465-.176-1.836-.312-.254-.703-.313-1.445-.313-1.21 0-1.894.684-2.988 2.442-.117.136-.254.312-.371.312-.215 0-.235-.098-.235-.703 0-1.25-.43-2.05-1.445-2.05-.488 0-.723.116-1.465.488-.976.488-1.426.859-2.168 1.093v.84c.645.703 1.406 1.524 1.504 2.012.235 1.308.059 3.027.059 6.504 0 1.015-.43 1.191-.742 1.308-.332.137-.723.274-.938.352-.059.078-.059.234 0 .332 0 .234.059.43.176.781 1.172-.117 1.62-.176 2.773-.176 1.485 0 2.48.118 3.086.118.528 0 .996-.079 1.621-.332 0-.313.098-.489-.058-1.016l-2.012-.273c-.039-.43-.117-.84-.117-1.192-.137-1.191-.04-3.379-.04-4.902 0-1.504.255-2.207 1.407-2.207.918 0 2.05.488 2.871.488.469 0 .703-.215.703-2.07m11.131 7.363c0-1.406-.86-2.52-2.011-3.34-.743-.527-1.602-1.035-2.735-1.582-.937-.488-1.64-1.074-1.64-1.836 0-.918.937-1.562 2.07-1.562 1.465 0 2.265.644 2.52 2.226.019.156 1.152.215 1.328.059 0-.352.097-.664.097-1.27 0-.742-.312-1.25-1.094-1.66-.898-.45-1.933-.664-3.183-.664-2.93 0-4.883 1.504-4.883 3.906 0 1.309.723 2.285 1.7 3.028.76.586 1.503 1.074 2.362 1.465 1.25.742 2.188 1.347 2.188 2.285 0 1.132-1.094 1.836-2.285 1.836-1.504 0-2.617-.918-2.754-2.54-.703-.175-.938-.019-1.25-.019-.059.488-.059.781-.059 1.211 0 1.035.117 1.406.703 1.816.88.567 2.012.996 3.555.996 3.164 0 5.371-1.777 5.371-4.355m0 0" style="fill:#039;fill-opacity:1;stroke:none" transform="translate(-413.139 -583.567)"/><path d="M531.147 603.915c0-1.348-1.211-2.54-2.442-2.54-1.25 0-2.168.86-2.168 2.13 0 1.503.957 2.695 2.442 2.695 1.191 0 2.168-.977 2.168-2.285m0 0" style="fill:#000;fill-opacity:1;stroke:none" transform="translate(-413.139 -583.567)"/><path d="m546.159 602.255-.82-.606c-.86 1.094-1.778 1.64-3.243 1.64-2.617 0-4.512-2.03-4.512-4.843 0-1.25.391-2.422 1.153-3.36.488-.605 1.132-1.074 1.797-1.074.859 0 1.816 1.348 2.441 2.11.527.879.957.937 1.328.86.293 0 .996-.43 1.367-.743.313-.234.469-.547.469-.86 0-1.699-2.207-2.988-4.55-2.988-4.278 0-7.5 3.34-7.5 7.266 0 4.004 2.753 6.601 6.386 6.601 2.422 0 4.59-1.464 5.684-4.003m16.073-2.891c0-3.984-3.164-6.973-7.382-6.973-4.16 0-7.09 2.852-7.09 6.817 0 4.023 2.988 7.05 7.304 7.05 2.11 0 3.81-.644 5.157-1.972s2.011-2.969 2.011-4.922m-3.867.644c0 2.657-1.094 4.727-2.812 4.727-2.012 0-3.614-2.832-3.614-6.29 0-2.655 1.133-4.53 2.754-4.53 2.012 0 3.672 2.754 3.672 6.093m28.606 5.742c.059-.35.02-.683-.039-1.054l-1.309-.137c0-6.015 0-7.949-.175-8.77-.41-1.874-1.778-3.34-3.77-3.34-1.68 0-3.3 1.349-4.062 2.052-.157.156-.274.332-.43.332-.117 0-.274-.274-.45-.547-.683-1.094-1.777-1.836-3.144-1.836-1.25 0-2.597.898-3.77 1.738-.234.195-.39.352-.566.352-.156 0-.254-.137-.254-.703 0-.899-.449-1.407-1.289-1.407-.625 0-1.152.274-1.855.645-.645.332-1.406.781-1.856 1.035l-.039.82c1.621 1.563 1.504 2.207 1.504 3.086 0 .86.078 3.242 0 5.957-.039.664-.156.664-.469.723-.761.137-.996.254-.996.586s.02.527.215.82c.606-.117 1.153-.176 2.5-.176.977 0 1.485.157 2.285.157.586 0 1.094-.059 1.465-.254v-1.035l-1.25-.176c-.117-2.695-.097-4.551-.097-5.801 0-1.719 0-2.46.488-3.008.371-.351.976-.703 1.719-.703 1.465 0 2.226.899 2.285 2.363.039 1.211.039 4.024 0 5.04-.02.722 0 1.19-.02 1.562-.039.703-.097.625-.43.625-.761.137-1.015.254-1.015.625 0 .293.059.45.195.781.625-.058 1.817-.176 2.461-.176.489 0 1.875.118 2.48.118.391 0 .86-.02 1.31-.274.038-.234.097-.547-.06-.976l-1.132-.176c-.156-.742-.117-2.813-.117-4.375 0-3.301-.059-3.73.37-4.278.352-.449 1.036-.8 1.856-.8.977 0 1.66.43 2.012 1.172.371.722.41 1.777.41 3.789 0 1.699-.136 3.144-.254 3.632-.215.86-.488.82-1.465 1.153-.058.37.04.86.176 1.191a18 18 0 0 1 2.52-.176c.722 0 1.914.157 2.344.157.605 0 1.23-.098 1.718-.332zm0 0" style="fill:#7dbd00;fill-opacity:1;stroke:none" transform="translate(-413.139 -583.567)"/></svg>