<svg xmlns="http://www.w3.org/2000/svg" width="1000" height="1000" viewBox="-5.81 -36.98 107.46 107.46"><g fill="#c8102e" fill-rule="evenodd"><path d="M9.913 12.265c.468 1.749.52 3.343.52 3.343 1.457-2.057 2.992-3.908 4.943-5.477 2.133-1.697 3.616-2.725 6.348-3.934 2.42-1.08 3.59-1.389 4.787-1.774a47 47 0 0 1 3.694-1.003c1.275-.283 2.498-.514 2.498-.206 0 .206-1.43.72-1.639.823-.989.437-1.925.771-4.007 1.723-2.497 1.157-4.318 2.468-6.426 4.191-1.899 1.543-3.72 3.652-5.333 5.786-.416.54-1.535 1.825-2.445 3.291-.833 1.312-1.587 2.7-1.848 3.137-.468.849-1.378 2.777-1.378 2.777s.832.283 2.341.206c1.717-.103 3.044-.283 5.23-1.388 2.445-1.235 4.058-2.726 5.827-4.552 1.691-1.774 2.914-3.214 4.423-5.451.962-1.466 1.743-2.546 3.018-5.066.806-1.594 1.144-3.343 1.378-3.394.26-.077.339 1.594.105 3.06-.547 3.6-.911 4.628-2.004 6.943-.78 1.697-1.951 3.471-3.616 5.142-1.717 1.749-3.148 2.958-5.411 4.423-1.64 1.054-2.784 1.594-4.58 2.083-2.002.566-4.344.463-5.229.386a11.5 11.5 0 0 1-2.289-.386c-.364.617-.989 2.674-1.197 3.523-.208.848-.598 1.774-.806 2.134-.312.566-.755.977-1.145.823-.754-.257-1.145-.952-1.3-1.877-.235-1.44-.053-2.957.13-3.806.234-1.208.702-2.726.702-2.726-.416-.41-1.691-1.645-3.148-4.294C.886 18.617-.025 15.788 0 12.985c.026-2.982.676-5.862 2.029-8.562.65-1.312 1.197-2.083 1.665-2.829C4.189.823 4.788 0 4.84 0c.078 0 1.456 2.726 2.835 5.914 1.353 3.292 1.77 4.526 2.238 6.351m3.564-8.1c-.676.49-.755.67-1.197 1.132-.468.489-.546.874-.468 1.517.026.154.13.514.208.669.338.54.807.797 1.379.797.338 0 .963-.309 1.587-1.132.624-.822.754-1.131.754-1.517 0-.308-.078-.668-.468-1.08-.416-.488-1.3-.72-1.795-.385zM4.762 1.08s-.339.771-.729 1.697c-.598 1.337-1.379 3.189-1.847 4.809-.624 2.237-1.067 5.528-.442 7.97.26 1.03.546 1.775.91 2.65.65 1.516 1.64 3.034 3.434 4.705 0 0 .599-.797.833-2.211.13-.823.13-1.029.182-1.698.078-1.028.078-2.134.104-3.394.052-1.645-.104-3.471-.52-5.94-.234-1.311-.65-3.677-.963-5.014-.338-1.337-.962-3.574-.962-3.574M60.41 30.522c-1.274 1.209-2.966 1.903-4.709 1.903-1.509 0-3.018-.54-4.214-1.466-1.561-1.234-2.42-2.982-2.42-4.962 0-1.749.677-3.343 1.951-4.552a6.82 6.82 0 0 1 4.683-1.903c1.717 0 3.46.695 4.71 1.903 1.274 1.209 1.925 2.829 1.925 4.552a6.22 6.22 0 0 1-1.926 4.525m-1.457-4.551c0-2.006-1.352-3.6-3.252-3.6-1.925 0-3.252 1.594-3.252 3.6 0 2.031 1.275 3.6 3.252 3.6 1.926 0 3.252-1.594 3.252-3.6M63.61 19.8h3.747c1.717 0 3.044.025 4.11.822.91.695 1.38 1.723 1.38 3.009 0 1.903-.964 3.137-2.785 3.497l3.382 4.937H69.62l-2.862-4.808v4.808h-3.174V19.8zm3.799 5.81c1.43 0 2.107-.436 2.107-1.516 0-1.286-.65-1.697-2.055-1.697h-.677v3.24h.625v-.026zm7.258 6.48V19.8h3.773c1.56 0 2.81.025 3.772.642 1.093.695 1.743 1.955 1.743 3.549 0 1.646-.598 2.854-1.717 3.497-.859.489-1.795.54-2.966.54h-1.431v4.063zm3.825-6.762c1.457 0 2.185-.283 2.185-1.466 0-1.182-.78-1.44-2.16-1.44h-.676v2.88h.65zm10.354 4.474c.937 0 1.535-.54 1.535-1.26 0-.977-.676-1.26-2.081-1.645-2.238-.592-3.33-1.466-3.33-3.395 0-2.288 1.69-3.985 4.292-3.985 1.38 0 2.602.36 3.695 1.105L91.89 23.04c-.78-.643-1.613-.978-2.394-.978-.832 0-1.378.438-1.378 1.029 0 .874.858 1.054 1.977 1.363 2.211.591 3.434 1.388 3.434 3.651 0 2.571-1.847 4.32-4.761 4.32-1.743 0-3.07-.54-4.423-1.8l1.535-2.494c.989 1.08 1.977 1.671 2.966 1.671m-45.919-.232c-1.95 0-3.2-1.336-3.252-3.6.052-2.288 1.327-3.599 3.252-3.599 1.093 0 1.978.463 2.654 1.414l2.94-1.388c-1.275-1.877-3.174-2.829-5.594-2.829-3.824 0-6.634 2.7-6.634 6.429s2.81 6.428 6.634 6.428c2.42 0 4.32-.951 5.594-2.828l-2.94-1.389c-.676.9-1.535 1.363-2.654 1.363zm3.955-12.702V8.82c-.182 1.08-.442 1.825-.573 2.314l-1.69 5.76h-2.264l-1.691-5.76c-.13-.489-.39-1.208-.572-2.314v8.048h-3.174V4.577h4.292l1.873 6.351c.13.386.287.926.39 1.672a7.3 7.3 0 0 1 .391-1.672l1.9-6.325h4.292v12.29h-3.174zm5.099-12.291h7.623v2.7h-4.319v2.134h4.085v2.623h-4.06v2.083h4.319v2.751h-7.623V4.577zm9.339 0h3.747c1.717 0 3.044.026 4.11.823.911.694 1.38 1.723 1.38 3.008 0 1.903-.963 3.137-2.784 3.497l3.382 4.938h-3.824l-2.862-4.809v4.809h-3.174V4.577zm3.825 5.811c1.431 0 2.108-.437 2.108-1.517 0-1.285-.65-1.697-2.056-1.697h-.676v3.24h.624zm13.06 3.935c-1.95 0-3.2-1.338-3.252-3.6.052-2.289 1.327-3.6 3.252-3.6 1.093 0 1.978.463 2.654 1.414l2.94-1.389c-1.275-1.877-3.174-2.828-5.594-2.828-3.824 0-6.634 2.7-6.634 6.428 0 3.729 2.81 6.429 6.634 6.429 2.42 0 4.32-.952 5.594-2.829l-2.94-1.388c-.702.9-1.56 1.363-2.654 1.363"/><path d="M84.553 17.1h3.825L95.87 4.55h-3.85l-2.237 3.73-2.68-3.729h-3.72l4.683 6.634z"/></g></svg>