<svg xmlns="http://www.w3.org/2000/svg" xml:space="preserve" width="1000" height="1000" viewBox="-166.43 -2016.07 5033.44 5033.44"><path fill="#fff" d="M3618.2 151.8h194.4v679.9h-194.4zm645.9 679.9h331.8V621.9h-133.8V151.8h-198zm-379.7 0h331.8V621.9h-133.7V151.8h-198.1zM3352 151.8v239.3h-95.8V151.8h-194.4v679.9h194.4V562.4h95.8v269.3h194.4V151.8z"/><linearGradient id="a" x1="2218.449" x2="2420.733" y1="-174.128" y2="1265.195" gradientUnits="userSpaceOnUse"><stop offset=".014" stop-color="#bca979"/><stop offset=".708" stop-color="#fce1a4"/></linearGradient><path fill="url(#a)" d="M1824.6 831.7c36.8 0 75.9-20.5 137-86.8-16.2 53.2 2.9 86.8 46.8 86.8 49.2 0 90.4-51.9 134.4-105.7l184.8-225.6c40-48.8 69.5-78.8 101.4-78.8 29.9 0 24.6 35.9-15.9 86.9-35.2 44.3-252.4 316.8-252.4 316.8h91.4L2476 534.6c67.1-87.3 113-113.1 138.1-113.1 13.2 0 16.3 9.7 16.3 19.6 0 27.1-20.3 50.8-82.5 128.7L2344 825.3h89.5l222.9-289.4c84-109.1 112.3-114.4 130.8-114.4 12.8 0 16.2 9.9 16.2 19.1 0 66.3-186.2 201.7-186.2 324.3 0 36.3 27.4 67.4 78.8 67.4 143.7 0 292.5-312.2 292.5-479.8 0-140.3-82-209.2-176.6-209.2-135.7 0-184.8 74.9-184.8 129.7 0 47.5 25 72.8 71 72.8 64.7 0 109.6-73.9 109.6-95.3 0-3.5-1.3-4.2-3.4-5.2-24.7 58.4-65 77.6-96.6 77.6-35.3 0-53.9-19.3-53.9-53.7 0-38.7 41.6-108 149.7-108 100 0 159.2 64 159.2 191.3 0 220.7-147.5 451.9-255.9 451.9-25.3 0-32.5-13.4-32.5-27.8 0-36.5 57.4-91.2 105.7-164.3 38.1-57.6 76.2-113.5 76.2-163.7 0-42.7-18.7-60.7-49.8-60.7-32.5 0-69.7 23.2-132.9 91.6 11-41.1 15-91.6-37.6-91.6-27.6 0-75.7 19.6-144.9 98.5 20.1-63.3 1.7-98.5-41.5-98.5-43.1 0-72.4 31.2-105.4 71.6l-163.5 199.7c-60.2 73.5-115.3 151.9-150.7 151.9-22.9 0-33-35.9 5.4-84.2l264.4-332.5h-97.5l-21.3 29.2c-4.2-22.6-21.7-33.5-42.7-33.5-70 0-157.3 50.1-222.1 114.9-54.3 54.3-101.8 133.2-125.4 193.8-34.3 44.7-91.9 112.3-133.9 112.3-28.6 0-34.9-35.9 3.6-84.2l264.4-332.5h-97.5S1716.7 545.9 1644 645.2c-19.3 25.3-79.8 102.1-98.5 120.8-30.8 30.8-57 45.2-75.7 45.2-28.6 0-34.9-35.9 3.6-84.2 34.3-43.1 414.5-521.9 414.5-521.9H1792s-244.9 322.3-334.4 440.1c-19.3 25.3-79.8 102.1-98.5 120.8-30.8 30.8-57 45.2-75.7 45.2-28.6 0-34.9-35.9 3.6-84.2 34.3-43.1 414.5-521.9 414.5-521.9h-95.9S1330.8 566.7 1257 663.9l-.4.6-.3.4-1.3 1.8c-.8 1.1-1.6 2.2-2.5 3.3-24.3 33.2-102.4 141.3-155.6 141.3-28.6 0-34.9-35.9 3.6-84.2l264.4-332.5H1267s-126 172.5-197.4 270-41.1 167.4 22.2 167.4c55.9 0 92.8-42.9 122.6-77.9-6.4 47.7 20.7 77.9 62 77.9 55.9 0 94.5-42.9 124.5-77.8-6.3 47.6 20.8 77.8 62 77.8 57.3 0 96.5-45.1 126.8-80.5-7.4 49.5 20.1 80.5 62.3 80.5 48.2 0 94-44.9 124.6-80.3-3.3 36.7 5.1 80 48 80m186.9-341.3c60.7-60.7 96.2-68.8 108.9-68.8s18.8 7.6 18.8 23.5c0 48.8-165.2 257.3-206.5 298.6-20.7 20.7-60.8 56.5-93.9 56.5-65.8-.1 54.8-191.9 172.7-309.8m-534.2-238.2c9.9-28.1-3.4-50.9-29.7-50.9s-55.6 22.8-65.5 50.9 3.4 50.9 29.7 50.9 55.6-22.8 65.5-50.9m494.5 50.9c26.3 0 55.6-22.8 65.5-50.9s-3.4-50.9-29.7-50.9-55.6 22.8-65.5 50.9 3.4 50.9 29.7 50.9M532.7 936.9c-173.5 0-275.9-105.6-300.5-247.4 9 2.4 18.2 3.7 27.5 3.8 21.7 0 53.1-4.3 87.1-21.1 15 11.7 33.8 18.5 56.8 18.5 180.3 0 313.2-338.2 199.5-433.1 95.3-43.7 196-58.7 267.2-17.7-18.4 13.3-35.7 28-51.9 43.9-136.8 136.8-200.6 415.5-304.2 527.4-11.2-3.7-23.5-7.1-38.4-7.1-20.6 0-39.4 9.7-42 21.6s12 21.6 32.6 21.6c15.5 0 31.3-3.7 51.8-15.9 11.1 1.3 22.2 1.9 33.4 2 41.9 0 81.5-18 127.3-63.9C798.6 649.8 902 397.2 972.3 348.7c-66 111.2-136.6 361.7-232.6 463.8-10.8-4.3-22.3-8.4-37.2-8.4-20.6 0-39.4 9.7-42 21.6-2.6 12 12 21.6 32.6 21.6 16 0 32.2-3.9 53.7-17.1 11.5 3.1 25.1 5.7 38.9 5.7 34.7 0 76.5-19.5 111.5-54.5 126.9-126.9 287.1-388.1 423-524 49.4-49.4 137.6-117.5 255.3-117.5 106.2 0 176.7 65 176.7 65 2.5-2.5 1.5-6.8-4.2-12.5-57.6-57.6-126.8-82.1-189.4-82.1s-168.1 21.7-295.8 149.5c-136.3 136.3-291 409.4-392.5 510.9-42.6 42.6-70.3 52.2-92.7 52.2-5.5 0-10.9-.8-16.2-2.3 16.8-12.3 36.6-29.8 61.3-54.4 166.5-166.5 204.2-472.2 297-565-6.4-6.4-51.8 4-131.6 83.8-128.7 128.3-201.7 352.9-328.2 479.4-39.6 39.6-81.1 56-107.1 56-5.2 0-10.4-.7-15.5-2 16.2-12.2 35.2-29.1 58.5-52.3 93.4-93.4 193.3-375.3 302.2-513.3 121.9-5.6 120.1-63.7 80.9-63.7-22 0-53.8 14.7-85.1 34.7-30.7-27-82.7-46.8-154.5-46.8-76.1 0-148.8 21.5-212.4 56.1-139.3 0-331.8 147.3-331.8 396.4q0 10.5.6 20.7c-33.5-22.2-63.3-63-63.3-132C132.4 318.4 437.1 75 796.5 75c143.6 0 289.8 47.7 380.6 113.6l5.2-6c-55.9-55.9-192.1-142.8-428.1-142.8-310.4 0-652.4 182.2-652.4 477.5 0 80.1 47.5 133.5 96 158.9 21.9 178.4 168.7 284.2 318.6 284.2h4073.7V937H532.7zm47.9-668.4c122.2 77.1-14.3 401.7-168.4 401.7-17.2 0-31.1-4.2-42.2-11.4 50.5-33.1 103.2-96.3 137.3-214.7l-7-2.5c-25.5 77.7-79.8 160.9-145.8 203.2-18.5-22.5-24.7-56.4-24.7-88 0-97.9 117.1-220 250.8-288.3M226.4 620.4c0-156.5 135.4-343.8 265.1-366-114 75-190.9 192.2-190.9 294.7 0 42.6 9.9 82 31.2 108.4-21.1 10-43.1 15.7-65.5 15.7-10.3 0-23.4-2-37.4-6.7-1.7-15.3-2.5-30.7-2.5-46.1"/></svg>